<?xml version="1.0" standalone="no"?>
<!DOCTYPE svg PUBLIC "-//W3C//DTD SVG 20010904//EN"
 "http://www.w3.org/TR/2001/REC-SVG-20010904/DTD/svg10.dtd">
<svg version="1.0" xmlns="http://www.w3.org/2000/svg"
 width="373.000000pt" height="187.000000pt" viewBox="0 0 373.000000 187.000000"
 preserveAspectRatio="xMidYMid meet">

<g transform="translate(0.000000,187.000000) scale(0.100000,-0.100000)"
fill="#000000" stroke="none">
<path d="M3210 1544 c-71 -14 -156 -50 -200 -85 -163 -128 -168 -392 -10 -531
27 -25 110 -72 207 -119 187 -91 213 -115 213 -194 0 -94 -59 -144 -181 -153
-86 -6 -154 10 -257 60 -45 22 -88 38 -96 35 -19 -7 -30 -85 -22 -145 8 -62
46 -95 151 -128 105 -34 234 -41 333 -20 153 32 248 99 305 215 30 61 32 73
32 166 0 86 -4 107 -25 150 -50 102 -101 138 -382 269 -74 35 -113 72 -128
123 -11 36 -10 46 6 79 32 64 62 79 162 79 78 0 97 -4 181 -39 70 -28 96 -35
105 -26 6 6 11 46 11 96 0 79 -2 87 -25 105 -45 34 -148 60 -255 64 -55 2
-111 1 -125 -1z"/>
<path d="M86 1509 l-26 -20 0 -604 0 -603 36 -12 c42 -14 189 -9 205 7 7 7 11
99 11 262 l-1 251 67 0 c132 0 165 -39 283 -332 59 -147 76 -181 96 -189 33
-12 185 -12 219 1 23 9 26 14 20 42 -7 34 -123 312 -166 398 -26 51 -68 101
-115 134 -11 8 -18 16 -15 18 3 2 28 14 55 28 114 57 175 159 175 295 0 142
-59 238 -181 294 -90 42 -162 51 -415 51 -209 0 -223 -1 -248 -21z m498 -204
c71 -35 103 -128 71 -211 -31 -82 -100 -114 -246 -114 -86 0 -87 0 -92 28 -6
34 -6 235 0 286 l5 38 112 -4 c82 -3 121 -9 150 -23z"/>
<path d="M1219 1501 l-29 -29 0 -596 c0 -442 3 -597 12 -602 22 -14 155 -17
192 -4 l36 11 2 522 3 522 178 -515 c97 -283 184 -521 192 -529 18 -18 169
-27 208 -12 31 12 29 7 96 196 175 494 265 748 284 800 l22 60 3 -522 2 -522
36 -11 c37 -13 170 -10 192 4 9 5 12 160 12 602 l0 596 -29 29 c-29 29 -30 29
-149 29 -66 0 -134 -3 -151 -6 -65 -13 -78 -38 -241 -472 -85 -227 -158 -412
-162 -412 -3 0 -15 26 -26 58 -81 232 -256 705 -274 742 -17 33 -35 51 -68 68
-39 19 -59 22 -178 22 l-134 0 -29 -29z"/>
</g>
</svg>
